<svg xmlns="http://www.w3.org/2000/svg"
  xmlns:xlink="http://www.w3.org/1999/xlink" viewBox="0 0 40 40" class="sc-dkrGBB jPmegd  css-8epegj" height="24" width="24">
  <path fill-rule="evenodd" clip-rule="evenodd" d="M32.9504 8.85836C35.5261 11.8496 37.0832 15.7429 37.0832 20C37.0832 29.4348 29.4347 37.0833 19.9999 37.0833C15.7428 37.0833 11.8494 35.5262 8.85825 32.9504L8.91634 32.9106L11.2947 31.541C13.7161 33.3702 16.7313 34.4551 19.9999 34.4551C27.9832 34.4551 34.455 27.9833 34.455 20C34.455 16.7314 33.3702 13.7162 31.5409 11.2949L32.9106 8.9163L32.9504 8.85836ZM31.1416 7.04958C28.1503 4.47378 24.2569 2.91663 19.9998 2.91663C10.565 2.91663 2.9165 10.5651 2.9165 20C2.9165 24.2571 4.47367 28.1505 7.04948 31.1417L7.08935 31.0836L8.45898 28.7053C6.62962 26.2839 5.54471 23.2686 5.54471 20C5.54471 12.0166 12.0165 5.54483 19.9998 5.54483C23.2685 5.54483 26.2837 6.62973 28.7052 8.45909L31.0836 7.08935L31.1416 7.04958ZM16.817 16.8172L8.17307 31.8269L23.1834 23.183L31.8269 8.17303L16.817 16.8172ZM19.9999 21.5078C19.1671 21.5078 18.4921 20.8328 18.4921 20C18.4921 19.1672 19.1671 18.4918 19.9999 18.4918C20.8327 18.4918 21.5078 19.1672 21.5078 20C21.5078 20.8328 20.8327 21.5078 19.9999 21.5078Z" class="sc-eDvShL eNHsiJ"></path>
</svg>