<svg aria-hidden="true" focusable="false"
  xmlns="http://www.w3.org/2000/svg"
  xmlns:xlink="http://www.w3.org/1999/xlink" viewBox="0 0 23 27" class="sc-dkrGBB bvGYBF  css-10l3hmu" height="28.176" width="24" fill="currentColor">
  <path fill-rule="evenodd" clip-rule="evenodd" d="M11.5 0C5.16072 0 0 5.07388 0 11.3146C0 14.8743 1.72017 17.5996 4.28914 20.2792L4.29802 20.2876L11.3381 26.9358C11.4288 27.0214 11.5712 27.0214 11.6619 26.9358C14.0091 24.7197 15.7692 23.0576 16.9426 21.9494L18.7007 20.2887L18.702 20.2875C20.1362 18.9464 21.2133 17.6495 21.9305 16.2104C22.649 14.7687 23 13.1968 23 11.3146C23 5.07388 17.8393 0 11.5 0ZM11.5001 1.25434C16.0493 1.25337 19.8617 4.36047 20.8206 8.5475H17.6022C17.5407 8.5475 17.4816 8.57147 17.4377 8.61426L11.5 14.3998L5.56338 8.61427C5.51947 8.57148 5.46037 8.5475 5.3988 8.5475H2.19726C3.1847 4.39214 6.98035 1.25434 11.5001 1.25434ZM11.5 3.52503C10.3332 3.52503 9.38765 4.4628 9.38765 5.62002C9.38765 6.77725 10.3332 7.71502 11.5 7.71502C12.6668 7.71502 13.6124 6.77725 13.6124 5.62002C13.6124 4.4628 12.6668 3.52503 11.5 3.52503ZM1.94654 10.6496C1.94654 10.5821 1.94736 10.5227 1.94892 10.4637H4.8315L11.3355 16.9517C11.3796 16.9957 11.4396 17.0204 11.5021 17.0204C11.5646 17.0204 11.6246 16.9957 11.6686 16.9517L18.1685 10.4637H21.0519C21.0535 10.529 21.0545 10.5932 21.0545 10.6496C21.0545 15.8287 16.7709 20.0449 11.5021 20.0449C6.23107 20.0449 1.94654 15.8287 1.94654 10.6496Z" class="sc-eDvShL jPtDgq"></path>
</svg>