<svg aria-hidden="true" focusable="false"
  xmlns="http://www.w3.org/2000/svg"
  xmlns:xlink="http://www.w3.org/1999/xlink" viewBox="0 0 512 512" class="sc-dkrGBB jPmegd  css-lq2v9t" height="24" width="24" stroke="hsl(0deg 0% 100%),hsl(0deg 0% 100%)">
  <path d="M80 176a16 16 0 00-16 16v216c0 30.24 25.76 56 56 56h272c30.24 0 56-24.51 56-54.75V192a16 16 0 00-16-16zM160 176v-32a96 96 0 0196-96h0a96 96 0 0196 96v32" fill="none" stroke="hsl(0deg 0% 100%),hsl(0deg 0% 100%)" stroke-linecap="round" stroke-linejoin="round" stroke-width="32" class="sc-eDvShL bwwKRG"></path>
  <path d="M160 224v16a96 96 0 0096 96h0a96 96 0 0096-96v-16" fill="none" stroke="hsl(0deg 0% 100%),hsl(0deg 0% 100%)" stroke-linecap="round" stroke-linejoin="round" stroke-width="32" class="sc-eDvShL bwwKRG"></path>
</svg>