<svg color="hsl(0deg 0% 100%),hsl(0deg 0% 100%)" aria-hidden="true" focusable="false"
  xmlns="http://www.w3.org/2000/svg"
  xmlns:xlink="http://www.w3.org/1999/xlink" viewBox="0 0 99 90" class="sc-dkrGBB liWXKB  css-lq2v9t" height="150" width="150">
  <circle fill="currentColor" cx="19.28" cy="61.212" r="5.868" class="sc-hLBatu fYoMIC"></circle>
  <circle fill="currentColor" cx="80.683" cy="61.212" r="5.868" class="sc-hLBatu fYoMIC"></circle>
  <path fill="currentColor" d="M10.351,85.521c-0.175,0-0.341-0.034-0.512-0.052v4.14c0,2.827,1.757,5.116,4.763,5.116c3.006,0,4.762-2.289,4.762-5.116  v-4.088H10.351z" class="sc-eDvShL YFXNM"></path>
  <path fill="currentColor" d="M89.442,85.521h-9.101v4.088c0,2.827,1.757,5.116,4.764,5.116c3.006,0,4.763-2.289,4.763-5.116v-4.131  C89.726,85.489,89.588,85.521,89.442,85.521z" class="sc-eDvShL YFXNM"></path>
  <path fill="currentColor" d="M89.442,77.357h-4.227h-0.221H14.713h-0.221h-4.141c-1.699,0-3.082,1.382-3.082,3.08c0,1.525,1.115,2.785,2.57,3.03  c0.167,0.028,0.337,0.052,0.512,0.052h9.014h17.586c0.051-1.721,1.459-3.108,3.192-3.108h19.505c1.732,0,3.142,1.388,3.192,3.108  h17.501h9.101c0.146,0,0.285-0.023,0.426-0.043c1.496-0.21,2.655-1.484,2.655-3.039C92.523,78.739,91.141,77.357,89.442,77.357z" class="sc-eDvShL YFXNM"></path>
  <path fill="currentColor" d="M14.603,77.347c-0.039,0-0.072,0.01-0.11,0.011h0.221C14.674,77.356,14.642,77.347,14.603,77.347z" class="sc-eDvShL YFXNM"></path>
  <path fill="currentColor" d="M85.105,77.347c-0.039,0-0.072,0.01-0.11,0.011h0.221C85.178,77.356,85.145,77.347,85.105,77.347z" class="sc-eDvShL YFXNM"></path>
  <path fill="currentColor" d="M59.648,83.412H40.144c-0.074,0-0.127,0.047-0.162,0.107h19.829C59.776,83.459,59.723,83.412,59.648,83.412z" class="sc-eDvShL YFXNM"></path>
  <path fill="currentColor" d="M59.811,83.52H39.982c-0.017,0.029-0.039,0.057-0.039,0.094v0.907v1v0.133c0,0.11,0.09,0.2,0.2,0.2h19.505  c0.111,0,0.201-0.09,0.201-0.2v-0.133v-1v-0.907C59.85,83.576,59.828,83.549,59.811,83.52z" class="sc-eDvShL YFXNM"></path>
  <path fill="currentColor" d="M84.407,42.791v-1.588c0-0.223,0.008-0.438,0.015-0.64c0.028-0.835,0.056-1.624-0.477-2.176  c-0.2-0.206-0.558-0.452-1.125-0.452h-4.009h-1.358H22.252h-1.578h-3.789c-0.568,0-0.925,0.246-1.125,0.453  c-0.533,0.551-0.505,1.339-0.476,2.173c0.007,0.203,0.015,0.419,0.015,0.643v1.588c0,0.224-0.008,0.44-0.015,0.643  c-0.029,0.834-0.057,1.621,0.476,2.172c0.199,0.207,0.556,0.453,1.125,0.453h3.789h1.578h13.161  c-2.282,3.018-3.653,6.763-3.653,10.83c0,9.931,8.08,18.011,18.011,18.011s18.011-8.08,18.011-18.011  c0-4.067-1.372-7.812-3.654-10.83h13.325h1.358h4.009c0.567,0,0.925-0.246,1.125-0.452c0.532-0.552,0.505-1.34,0.477-2.175  C84.415,43.229,84.407,43.014,84.407,42.791z" class="sc-eDvShL YFXNM"></path>
  <path fill="currentColor" d="M90.794,29.422c0,1.886-0.912,3.417-3.243,3.417H11.959c-2.333,0-3.243-1.53-3.243-3.417l2.939-16.163    c-0.001-1.887,10.004-4.273,12.335-4.273H76.01c2.332,0,11.845,2.386,11.845,4.273L90.794,29.422z" class="sc-eDvShL YFXNM"></path>
  <path fill="currentColor" d="M87.551,34.339H11.959c-2.882,0-4.744-1.93-4.744-4.917l0.024-0.269l2.921-16.064    c0.121-1.607,1.99-2.81,6.358-4.112c2.806-0.837,6.088-1.492,7.471-1.492H76.01c0.791,0,12.94,1.796,13.336,5.584l2.949,16.353    C92.295,32.409,90.433,34.339,87.551,34.339z M10.218,29.548c0.042,1.57,0.859,1.79,1.741,1.79h75.591    c0.882,0,1.699-0.22,1.74-1.79l-2.9-15.951c-1.151-1.118-8.132-3.111-10.381-3.111H23.991c-2.126,0-9.599,1.935-10.876,3.134    L10.218,29.548z" class="sc-eDvShL YFXNM"></path>
  <path fill="currentColor" d="M11.722,13.778c0-4.167,16.132-6.793,38.046-6.793c21.913,0,38.046,2.627,38.046,6.793" class="sc-eDvShL YFXNM"></path>
  <path fill="currentColor" d="M89.314,13.778h-3.001c0-1.788-11.035-5.293-36.545-5.293s-36.545,3.505-36.545,5.293h-3.001    c0-7.485,27.656-8.294,39.546-8.294C61.658,5.484,89.314,6.292,89.314,13.778z" class="sc-eDvShL YFXNM"></path>
  <path fill="currentColor" d="M6.76,33.737c0.114,0.833-0.468,1.6-1.299,1.714l-2.712,0.374c-0.832,0.114-1.601-0.468-1.715-1.299l-1.037-7.536  c-0.115-0.832,0.467-1.599,1.299-1.713l2.713-0.375c0.833-0.115,1.6,0.467,1.713,1.299L6.76,33.737z" class="sc-eDvShL YFXNM"></path>
  <path fill="currentColor" d="M93.203,33.737c-0.112,0.833,0.47,1.6,1.299,1.714l2.714,0.374c0.833,0.114,1.602-0.468,1.715-1.299l1.037-7.536  c0.114-0.832-0.466-1.599-1.3-1.713l-2.712-0.375c-0.832-0.115-1.6,0.467-1.716,1.299L93.203,33.737z" class="sc-eDvShL YFXNM"></path>
</svg>